<?xml version="1.0" standalone="no"?>
<!DOCTYPE svg PUBLIC "-//W3C//DTD SVG 20010904//EN"
 "http://www.w3.org/TR/2001/REC-SVG-20010904/DTD/svg10.dtd">
<svg version="1.0" xmlns="http://www.w3.org/2000/svg"
 width="1043.000000pt" height="759.000000pt" viewBox="0 0 1043.000000 759.000000"
 preserveAspectRatio="xMidYMid meet">
<metadata>
Created by potrace 1.16, written by Peter Selinger 2001-2019
</metadata>
<g transform="translate(0.000000,759.000000) scale(0.100000,-0.100000)"
fill="#000000" stroke="none">
<path d="M4464 6038 c-76 -56 -188 -138 -249 -183 -60 -45 -174 -127 -253
-184 l-142 -103 2 -436 3 -437 223 -3 222 -2 0 95 0 95 -130 0 -130 0 0 298 0
298 43 30 c23 17 121 89 217 159 312 229 323 237 342 232 28 -8 218 -151 214
-162 -1 -5 -45 -40 -97 -77 -52 -37 -101 -74 -110 -82 -15 -12 -17 -59 -18
-437 -1 -233 2 -430 7 -437 7 -9 92 -12 393 -10 l384 3 3 435 2 435 -22 17
c-13 10 -65 48 -115 84 -51 37 -90 70 -88 75 11 17 209 159 223 159 8 0 71
-42 141 -93 69 -51 199 -146 289 -211 l162 -118 0 -299 0 -299 -140 0 -140 0
0 -95 0 -95 235 0 235 0 0 440 0 439 -52 39 c-64 47 -252 184 -483 352 -93 67
-187 136 -208 152 l-38 29 -106 -78 c-59 -43 -138 -102 -177 -130 -112 -83
-107 -82 -168 -36 -70 52 -310 227 -324 235 -5 4 -73 -39 -150 -94z m644 -500
l92 -68 -2 -293 -3 -292 -197 -3 -198 -2 0 298 0 298 98 71 c53 39 102 68 107
65 6 -3 52 -37 103 -74z"/>
<path d="M4840 4583 c-27 -10 -40 -25 -33 -37 14 -21 11 -36 -8 -46 -23 -13
-25 -48 -4 -56 8 -4 12 -10 9 -15 -7 -12 21 -11 68 3 29 9 41 9 50 0 17 -17
53 -15 68 3 11 13 10 14 -3 9 -9 -3 -25 1 -37 9 l-20 14 20 18 c16 14 18 21 8
27 -9 6 -7 8 7 4 11 -3 27 -1 35 4 11 7 1 10 -34 10 -44 0 -48 -2 -31 -13 18
-14 13 -37 -8 -37 -7 1 -23 10 -36 20 l-23 20 23 19 c20 16 21 21 10 35 -14
16 -33 19 -61 9z"/>
<path d="M4338 4363 c408 -2 1076 -2 1485 0 408 1 74 2 -743 2 -817 0 -1151
-1 -742 -2z"/>
<path d="M0 1880 l0 -1880 5215 0 5215 0 0 1880 0 1880 -5215 0 -5215 0 0
-1880z m4809 1052 c175 -127 187 -134 208 -121 12 8 101 72 198 142 l175 128
102 -76 c105 -77 198 -145 503 -367 l170 -124 3 -442 2 -442 -235 0 -235 0 0
95 0 95 140 0 140 0 0 298 0 298 -217 159 c-120 87 -250 183 -289 212 -40 29
-78 53 -85 53 -8 0 -59 -34 -114 -75 -55 -41 -103 -75 -107 -75 -20 0 -3 -20
47 -56 31 -21 83 -59 115 -82 l60 -44 0 -439 0 -439 -392 2 -393 3 -3 434 c-2
404 -1 435 15 447 10 8 62 46 116 84 53 39 97 74 97 78 -1 14 -205 157 -225
157 -11 0 -149 -95 -307 -210 l-288 -210 0 -297 0 -298 130 0 130 0 0 -95 0
-95 -225 0 -225 0 0 439 0 438 278 203 c152 112 328 241 391 286 62 46 119 80
125 77 6 -4 94 -68 195 -141z m-739 -1430 c19 -9 41 -29 49 -43 13 -24 13 -29
-3 -54 -25 -39 -80 -59 -141 -51 -27 3 -51 10 -53 16 -2 6 -8 8 -13 4 -5 -3
-8 -2 -7 3 1 4 -4 19 -11 32 -10 18 -10 29 -1 49 10 24 10 24 -7 11 -17 -13
-17 -13 -3 5 36 45 129 59 190 28z m1733 -209 c-402 -2 -1064 -2 -1470 0 -406
1 -76 2 732 2 809 0 1141 -1 738 -2z"/>
<path d="M4897 2489 c-57 -41 -99 -79 -102 -92 -3 -12 -4 -146 -3 -297 l3
-275 203 -3 202 -2 0 296 0 296 -25 20 c-34 26 -175 128 -179 128 -1 0 -46
-32 -99 -71z"/>
<path d="M3948 1504 c-9 -3 -21 -18 -27 -33 -22 -51 22 -111 80 -111 35 0 87
30 93 53 6 23 -7 59 -26 75 -17 13 -93 23 -120 16z"/>
</g>
</svg>
